#!OML:ASF X:\für Bonn\!DataBase\2005_08_10_Bjorn_Final\c3d\bjorn.ASF
:FULLY-SPECIFIED
:DEGREES
395
root 0.281388 1.99581 19.2263 -261.121 -6.92765 -536.588
lowerback 47.4731 5.96303 14.9451
upperback 30.7155 -3.72101 6.31071
thorax 16.6771 -8.40068 -1.33797
lowerneck 13.9724 13.7454 5.81611
upperneck 11.2392 18.0575 -3.4568
head 2.28548 8.8091 -2.35732
rclavicle -3.72721e-016 -3.44891e-014
rhumerus -82.292 0.293847 -95.0588
rradius 61.2568
rwrist -52.6177
rhand -19.5506 -9.72845
rfingers 7.12502
rthumb 6.77363 -39.6001
lclavicle -3.72721e-016 -3.44891e-014
lhumerus -91.3375 -40.1452 118.683
lradius 68.541
lwrist 51.2646
lhand -37.6699 -337.087
lfingers 7.12502
lthumb -10.7208 52.6196
rfemur -66.1992 -36.4175 -4.8091
rtibia 125.575
rfoot 29.1429 21.0814
rtoes -0.208942
lfemur -73.3747 43.5054 -1.62418
ltibia 142.879
lfoot 14.1342 -18.1763
ltoes -1.30722
396
root 0.295139 1.99075 19.2317 -261.221 -7.06689 -536.721
lowerback 47.2222 5.98072 14.6643
upperback 30.791 -3.82626 6.1904
thorax 16.7789 -8.46697 -1.35338
lowerneck 13.8951 13.8422 5.69033
upperneck 11.2745 18.1659 -3.41718
head 2.2995 8.85694 -2.3181
rclavicle -7.30534e-015 2.18663e-015
rhumerus -82.5402 0.335225 -94.9026
rradius 61.8058
rwrist -52.5016
rhand -19.5805 -9.96633
rfingers 7.12502
rthumb 6.74481 -39.8389
lclavicle -7.30534e-015 2.18663e-015
lhumerus -91.6165 -39.8634 118.678
lradius 68.829
lwrist 51.2367
lhand -37.9159 -337.075
lfingers 7.12502
lthumb -10.9582 52.6194
rfemur -65.965 -35.4262 -4.55514
rtibia 125.035
rfoot 29.862 20.4602
rtoes 0.17343
lfemur -73.2939 42.511 -1.96365
ltibia 142.447
lfoot 14.4359 -17.7549
ltoes -1.49384
397
root 0.307951 1.98568 19.2362 -261.288 -7.20189 -536.849
lowerback 46.9365 5.98992 14.4375
upperback 30.8827 -3.92309 6.0546
thorax 16.9156 -8.51163 -1.41766
lowerneck 13.8157 13.9119 5.66271
upperneck 11.3079 18.2529 -3.40353
head 2.32468 8.89841 -2.30154
rclavicle 3.89866e-014 -2.61402e-014
rhumerus -82.7392 0.312052 -94.799
rradius 62.3305
rwrist -52.3658
rhand -19.6044 -10.2248
rfingers 7.12502
rthumb 6.72174 -40.0981
lclavicle 3.89866e-014 -2.61402e-014
lhumerus -91.9037 -39.6391 118.632
lradius 69.1285
lwrist 51.3064
lhand -38.2024 -337.113
lfingers 7.12502
lthumb -11.2344 52.5665
rfemur -65.7653 -34.5174 -4.27595
rtibia 124.511
rfoot 30.5061 19.9413
rtoes 0.377654
lfemur -73.2876 41.4468 -2.37453
ltibia 141.998
lfoot 14.7328 -17.2958
ltoes -1.80476
398
root 0.321633 1.9813 19.239 -261.365 -7.33786 -536.985
lowerback 46.7087 6.00739 14.2002
upperback 30.961 -4.00957 5.92627
thorax 17.0245 -8.56088 -1.46482
lowerneck 13.7272 13.9859 5.64152
upperneck 11.3576 18.3466 -3.40542
head 2.3598 8.94313 -2.28934
rclavicle 4.11236e-014 -4.68138e-014
rhumerus -82.9031 0.265015 -94.6854
rradius 62.7799
rwrist -52.1136
rhand -19.682 -10.4769
rfingers 7.12502
rthumb 6.64684 -40.3526
lclavicle 4.11236e-014 -4.68138e-014
lhumerus -92.1979 -39.3712 118.574
lradius 69.4497
lwrist 51.3647
lhand -38.5866 -337.221
lfingers 7.12502
lthumb -11.605 52.4377
rfemur -65.5753 -33.6584 -3.99596
rtibia 124.023
rfoot 31.0265 19.5821
rtoes 0.27038
lfemur -73.2196 40.4464 -2.74313
ltibia 141.526
lfoot 14.993 -16.8739
ltoes -1.94172
399
root 0.3346 1.97604 19.2418 -261.419 -7.49424 -537.114
lowerback 46.4901 6.02239 13.9869
upperback 31.0633 -4.11015 5.78841
thorax 17.1695 -8.61758 -1.53701
lowerneck 13.5047 14.063 5.61394
upperneck 11.4144 18.4486 -3.41216
head 2.41908 8.99378 -2.26671
rclavicle 8.72665e-014 -8.24956e-015
rhumerus -82.9678 0.199884 -94.6268
rradius 63.1727
rwrist -51.7483
rhand -19.8188 -10.6597
rfingers 7.12502
rthumb 6.5147 -40.5395
lclavicle 8.72665e-014 -8.24956e-015
lhumerus -92.4008 -39.1473 118.431
lradius 69.7581
lwrist 51.5154
lhand -39.0014 -337.363
lfingers 7.12502
lthumb -12.005 52.2723
rfemur -65.4236 -32.8446 -3.72603
rtibia 123.553
rfoot 31.5575 19.2937
rtoes 0.212194
lfemur -73.2117 39.3462 -3.19244
ltibia 141.02
lfoot 15.3297 -16.362
ltoes -1.8111
400
root 0.346649 1.97105 19.2431 -261.46 -7.64903 -537.235
lowerback 46.2851 6.0301 13.822
upperback 31.1809 -4.2144 5.64369
thorax 17.3399 -8.67066 -1.64233
lowerneck 13.2467 14.1298 5.62859
upperneck 11.431 18.5486 -3.44201
head 2.47711 9.04736 -2.25608
rclavicle -1.9307e-014 2.64384e-014
rhumerus -82.9544 0.0576109 -94.5921
rradius 63.5093
rwrist -51.2915
rhand -19.9938 -10.8011
rfingers 7.12502
rthumb 6.34584 -40.686
lclavicle -1.9307e-014 2.64384e-014
lhumerus -92.5428 -38.9869 118.248
lradius 69.9846
lwrist 51.6482
lhand -39.3973 -337.599
lfingers 7.12502
lthumb -12.3867 52.0143
rfemur -65.2777 -32.0727 -3.4877
rtibia 123.103
rfoot 32.1161 19.0251
rtoes 0.418326
lfemur -73.2008 38.2435 -3.64571
ltibia 140.5
lfoot 15.6497 -15.8539
ltoes -1.49374
401
root 0.358406 1.96682 19.2437 -261.493 -7.77103 -537.344
lowerback 46.1096 6.03331 13.6976
upperback 31.3053 -4.33167 5.52609
thorax 17.5246 -8.73864 -1.7365
lowerneck 12.8539 14.2077 5.57823
upperneck 11.5252 18.6549 -3.47368
head 2.57761 9.10044 -2.22252
rclavicle 2.24378e-014 9.24349e-015
rhumerus -82.8648 -0.0385369 -94.5838
rradius 63.7696
rwrist -50.7865
rhand -20.1932 -10.8888
rfingers 7.12502
rthumb 6.15331 -40.7794
lclavicle 2.24378e-014 9.24349e-015
lhumerus -92.6052 -38.8406 118.061
lradius 70.1465
lwrist 51.6685
lhand -39.6926 -337.825
lfingers 7.12502
lthumb -12.6715 51.7702
rfemur -65.1292 -31.3374 -3.25316
rtibia 122.663
rfoot 32.7596 18.6463
rtoes 1.20895
lfemur -73.182 37.2095 -4.04536
ltibia 139.959
lfoot 15.9364 -15.3317
ltoes -0.981248
402
root 0.369306 1.96276 19.2437 -261.492 -7.91142 -537.459
lowerback 45.9463 6.03019 13.573
upperback 31.4118 -4.43871 5.40242
thorax 17.6808 -8.79464 -1.83317
lowerneck 12.5461 14.2767 5.50178
upperneck 11.5529 18.749 -3.51043
head 2.63863 9.14723 -2.19614
rclavicle -1.83876e-015 6.85807e-014
rhumerus -82.7713 -0.183165 -94.582
rradius 63.9127
rwrist -50.2439
rhand -20.4427 -10.8516
rfingers 7.12502
rthumb 5.91243 -40.7491
lclavicle -1.83876e-015 6.85807e-014
lhumerus -92.6428 -38.6613 117.812
lradius 70.2988
lwrist 51.6366
lhand -39.9296 -338.11
lfingers 7.12502
lthumb -12.8999 51.4715
rfemur -65.0187 -30.6532 -3.06438
rtibia 122.24
rfoot 33.3906 18.2352
rtoes 2.11354
lfemur -73.198 36.1673 -4.48662
ltibia 139.405
lfoot 16.2597 -14.7823
ltoes -0.342365
